<?xml version="1.0" standalone="no"?>
<!DOCTYPE svg PUBLIC "-//W3C//DTD SVG 20010904//EN"
 "http://www.w3.org/TR/2001/REC-SVG-20010904/DTD/svg10.dtd">
<svg version="1.0" xmlns="http://www.w3.org/2000/svg"
 width="1280.000000pt" height="1191.000000pt" viewBox="0 0 1280.000000 1191.000000"
 preserveAspectRatio="xMidYMid meet">
<metadata>
Created by potrace 1.15, written by Peter Selinger 2001-2017
</metadata>
<g transform="translate(0.000000,1191.000000) scale(0.100000,-0.100000)"
fill="#000000" stroke="none">
<path d="M6593 11896 c-24 -8 -58 -23 -78 -35 -19 -11 -478 -347 -1018 -746
l-983 -725 -291 -657 c-160 -362 -307 -696 -326 -743 -19 -47 -58 -143 -88
-214 l-54 -128 -546 -658 -546 -658 -694 -632 c-382 -347 -713 -652 -737 -678
-57 -63 -85 -138 -84 -227 0 -83 19 -140 67 -205 68 -92 194 -147 309 -134
107 12 146 41 588 444 226 206 552 503 724 660 l312 285 437 525 c240 289 442
530 448 537 9 10 68 4 267 -27 140 -21 541 -82 890 -134 349 -53 645 -98 657
-101 24 -6 1269 -934 1266 -944 -3 -13 -536 -917 -547 -929 -10 -10 -63 3
-272 64 -142 41 -261 77 -262 79 -14 13 322 396 564 645 89 91 167 176 173
188 7 13 13 44 13 68 0 99 -93 169 -190 142 -43 -12 -136 -99 -364 -342 -354
-376 -542 -628 -596 -796 -58 -179 -104 -562 -119 -985 -5 -152 -4 -185 10
-210 60 -116 213 -119 272 -5 8 16 17 105 24 245 20 382 54 700 75 692 6 -2
115 -35 241 -72 127 -37 236 -71 244 -75 7 -4 152 -216 321 -471 l307 -464
-107 -105 c-268 -264 -434 -539 -490 -811 -35 -168 -21 -309 44 -437 56 -111
254 -323 668 -715 184 -174 313 -315 484 -527 55 -69 129 -151 162 -182 68
-63 174 -119 267 -143 69 -17 230 -20 307 -4 518 104 1101 682 1302 1289 53
160 70 286 63 455 -35 786 -605 1435 -1390 1582 -128 24 -413 24 -517 1 -126
-28 -259 -75 -373 -131 l-107 -53 -251 379 c-138 208 -249 380 -247 382 1 2
307 6 678 9 371 3 874 9 1116 12 l441 6 32 -68 c172 -367 593 -551 971 -425
257 86 450 287 519 541 91 328 204 735 206 737 1 2 49 -4 106 -13 138 -21 412
-14 549 15 447 92 835 352 1081 726 261 394 343 890 224 1348 -31 119 -72 223
-141 357 -201 391 -580 704 -1002 829 -176 52 -277 66 -492 65 -171 0 -210 -4
-321 -27 -455 -96 -831 -352 -1083 -740 -92 -141 -194 -377 -221 -514 -4 -18
-10 -35 -14 -37 -3 -2 -78 -1 -166 4 -853 46 -1205 62 -1217 58 -8 -3 -144
-226 -302 -496 l-288 -490 -40 -6 c-33 -5 -46 -2 -72 17 -17 13 -280 209 -584
436 l-553 413 7 47 c3 25 9 49 13 53 3 3 105 16 226 27 121 11 512 48 870 82
357 33 650 61 651 62 0 1 265 351 587 778 322 427 597 794 611 815 36 55 59
154 51 217 -15 115 -92 224 -194 274 -49 24 -68 28 -146 28 -104 0 -156 -19
-224 -80 -23 -21 -267 -337 -543 -702 -276 -366 -511 -669 -522 -673 -12 -5
-75 -13 -141 -19 -66 -5 -223 -20 -350 -32 -126 -12 -381 -36 -565 -53 l-335
-31 -280 91 c-154 51 -462 152 -685 225 -223 72 -409 136 -414 140 -5 4 37
112 97 246 l105 238 921 680 c506 374 931 691 946 705 14 13 40 54 58 89 29
59 32 75 32 151 -1 71 -5 94 -28 141 -32 67 -109 142 -173 171 -59 25 -174 33
-231 14z m4772 -2612 c176 -30 367 -108 539 -221 92 -61 298 -267 361 -363
288 -434 319 -968 83 -1422 -191 -367 -542 -632 -951 -718 -124 -26 -299 -35
-421 -21 -55 6 -102 14 -104 16 -3 2 31 132 75 287 l79 283 72 6 c111 10 169
27 272 77 285 138 440 475 361 784 -36 140 -120 274 -228 362 -226 188 -543
214 -794 66 -66 -39 -155 -117 -197 -173 l-21 -29 -356 18 c-323 16 -355 19
-355 35 0 33 62 195 111 288 216 414 618 688 1084 741 101 11 273 4 390 -16z
m-2562 -1359 c260 -13 509 -27 553 -30 l81 -7 7 -97 c18 -259 114 -549 253
-765 24 -37 43 -71 41 -75 -2 -4 -133 -172 -293 -374 -342 -432 -377 -490
-419 -688 l-6 -27 -512 -6 c-1150 -14 -1449 -13 -1443 2 3 8 109 191 237 408
216 368 233 394 262 399 17 2 353 27 746 55 393 27 746 55 784 60 176 27 296
165 296 340 0 183 -136 326 -319 337 -36 2 -300 -14 -586 -35 -286 -22 -521
-39 -523 -37 -1 1 73 129 164 283 129 219 171 282 186 282 11 0 232 -11 491
-25z m1252 -65 c104 -6 218 -13 253 -16 l62 -6 0 -45 c0 -43 -7 -54 -206 -306
-114 -144 -212 -268 -219 -275 -10 -11 -18 -4 -43 43 -49 89 -99 213 -122 300
-18 67 -49 258 -50 303 0 15 67 16 325 2z m401 -371 c68 -129 202 -246 348
-305 38 -15 66 -32 66 -40 0 -14 -150 -546 -155 -552 -2 -2 -49 15 -105 37
-126 51 -260 129 -367 215 -86 70 -217 209 -211 225 3 9 381 491 385 491 1 0
19 -32 39 -71z m-273 -963 c118 -79 276 -158 389 -195 l66 -22 -20 -72 c-12
-40 -28 -99 -38 -132 l-17 -60 -28 55 c-80 159 -213 293 -358 365 -127 62
-226 86 -357 86 -58 0 -131 -7 -163 -14 -68 -17 -77 -35 73 156 l105 134 117
-113 c73 -70 161 -142 231 -188z m-228 -211 c106 -27 184 -72 266 -154 116
-116 172 -250 172 -411 0 -154 -56 -293 -163 -401 -105 -106 -229 -165 -369
-176 -293 -22 -556 176 -617 467 -62 295 134 602 431 676 70 17 210 17 280 -1z
m-1678 -1731 c549 -95 1002 -540 1112 -1092 55 -276 29 -484 -94 -740 -95
-198 -213 -363 -378 -530 -342 -347 -709 -478 -924 -331 -23 16 -97 97 -163
179 -219 270 -307 363 -684 725 -296 284 -419 420 -442 489 -22 64 -22 168 0
256 24 94 125 291 203 395 72 95 251 288 264 283 4 -2 182 -266 394 -588 213
-322 397 -596 409 -608 119 -131 344 -25 324 152 -6 53 8 31 -443 711 -201
303 -365 554 -365 558 0 5 42 28 93 52 98 47 233 89 332 105 76 11 248 4 362
-16z"/>
<path d="M2524 10016 c-319 -84 -561 -333 -635 -652 -18 -81 -21 -114 -17
-232 5 -118 10 -150 36 -232 91 -278 311 -490 599 -576 120 -36 325 -40 448
-7 157 41 313 131 417 240 452 475 254 1246 -372 1448 -74 24 -105 28 -235 32
-134 3 -160 1 -241 -21z"/>
<!-- <path d="M6115 2600 c-434 -36 -807 -264 -955 -583 -124 -266 -75 -567 130
-800 l42 -47 -2666 0 -2666 0 0 -585 0 -585 6295 0 6295 0 -2 583 -3 582
-2723 3 -2722 2 59 71 c67 79 131 201 158 299 27 99 24 273 -6 370 -55 179
-160 323 -326 449 -230 174 -585 268 -910 241z"/> -->
</g>
</svg>
