<?xml version="1.0" standalone="no"?>
<!DOCTYPE svg PUBLIC "-//W3C//DTD SVG 20010904//EN"
 "http://www.w3.org/TR/2001/REC-SVG-20010904/DTD/svg10.dtd">
<svg version="1.0" xmlns="http://www.w3.org/2000/svg"
 width="1280.000000pt" height="640.000000pt" viewBox="0 0 1280.000000 640.000000"
 preserveAspectRatio="xMidYMid meet">
<metadata>
Created by potrace 1.15, written by Peter Selinger 2001-2017
</metadata>
<g transform="translate(0.000000,640.000000) scale(0.100000,-0.100000)"
fill="#000000" stroke="none">
<path d="M3085 5209 c-201 -7 -260 -13 -469 -49 -143 -24 -303 -45 -395 -50
-179 -12 -243 -22 -344 -54 -39 -13 -115 -31 -167 -40 -400 -71 -463 -92 -618
-200 -99 -69 -152 -127 -262 -283 -72 -102 -88 -120 -102 -112 -10 5 -92 80
-184 167 -167 159 -208 191 -219 172 -10 -15 1 -27 150 -167 196 -184 229
-219 222 -237 -4 -9 -13 -16 -21 -16 -8 0 -70 37 -138 82 -67 45 -181 113
-253 151 -72 39 -149 83 -173 99 -41 28 -72 31 -72 8 0 -6 87 -67 193 -136
105 -69 206 -138 222 -154 17 -15 55 -40 86 -54 71 -33 97 -59 79 -81 -7 -8
-18 -15 -25 -15 -7 0 -142 43 -300 95 -158 52 -289 95 -291 95 -2 0 -4 -8 -4
-18 0 -15 37 -32 193 -88 105 -37 215 -81 244 -96 28 -15 72 -32 96 -39 44
-11 45 -12 34 -36 -11 -24 -13 -25 -86 -19 -153 11 -389 18 -410 11 -28 -8
-27 -31 2 -39 12 -3 76 -6 142 -6 150 -1 262 -13 300 -31 25 -12 31 -22 37
-64 6 -44 14 -56 66 -105 53 -49 60 -60 66 -104 8 -61 25 -81 88 -102 53 -17
98 -16 200 7 89 20 121 5 226 -109 48 -53 107 -108 132 -124 62 -39 184 -74
310 -88 89 -10 112 -10 148 3 46 16 42 17 225 -44 34 -11 83 -27 110 -34 26
-7 120 -60 210 -117 89 -58 184 -115 211 -128 47 -22 266 -225 266 -247 0 -5
-53 -14 -117 -21 -65 -7 -203 -21 -308 -32 -150 -17 -223 -20 -350 -15 -276
11 -576 -17 -753 -69 -112 -34 -349 -82 -522 -106 -80 -11 -188 -32 -240 -47
-118 -32 -351 -121 -447 -170 l-73 -37 0 -117 c0 -136 -9 -126 117 -128 79 -1
85 0 213 58 73 33 160 78 194 100 74 48 208 94 336 117 79 14 136 15 340 10
269 -7 253 -8 725 65 342 52 462 58 655 30 80 -12 159 -26 175 -31 44 -13 221
-46 379 -70 77 -12 149 -26 160 -31 37 -16 -430 -2 -509 15 -132 30 -376 15
-472 -29 -29 -13 -72 -37 -95 -53 -61 -41 -61 -41 -277 -63 -244 -25 -452 -58
-644 -103 -81 -19 -184 -40 -230 -46 -116 -16 -164 -43 -302 -172 -67 -62
-149 -134 -183 -161 -81 -61 -91 -83 -66 -138 33 -75 128 -89 300 -43 55 15
121 31 149 36 67 13 79 20 160 97 131 125 153 141 188 141 17 0 77 16 132 36
l100 36 280 11 c324 12 431 13 720 7 l210 -5 100 34 100 34 215 1 c235 1 195
7 610 -91 313 -73 531 -17 630 164 l25 48 75 -1 c57 -1 101 -10 183 -38 186
-63 445 -135 576 -160 210 -40 331 -51 601 -51 247 0 391 12 550 46 65 14 286
87 345 114 28 12 82 33 120 45 119 39 211 86 389 197 l171 108 83 -2 c48 -2
94 -9 110 -17 48 -25 112 -98 188 -212 49 -74 101 -138 157 -191 119 -112 359
-261 519 -323 120 -46 517 -154 715 -195 266 -55 372 -64 763 -67 l315 -2 382
47 c210 26 401 47 426 47 71 0 211 -27 357 -70 74 -21 185 -49 245 -61 61 -11
124 -28 140 -37 36 -18 335 -55 450 -55 118 0 371 20 443 34 l62 13 0 149 c0
147 0 149 -21 144 -12 -3 -31 -2 -43 3 -12 4 -66 3 -121 -2 -84 -8 -126 -7
-260 10 -266 35 -339 42 -413 42 -87 0 -183 18 -332 63 -63 19 -147 42 -185
51 -39 8 -103 29 -144 46 -41 16 -82 30 -92 30 -9 0 -51 14 -92 30 -86 34
-121 37 -197 14 -34 -10 -72 -14 -100 -11 -47 6 -214 -14 -333 -39 -99 -21
-337 -46 -447 -47 -79 -1 -103 2 -143 20 -33 15 -93 28 -190 39 -89 10 -160
23 -190 36 -56 24 -145 117 -179 187 -23 48 -37 166 -21 182 5 5 41 3 88 -6
107 -19 225 -34 370 -47 95 -8 159 -7 310 6 105 9 224 22 265 29 142 23 898
-2 1155 -38 267 -38 369 -37 674 4 134 18 151 23 245 69 131 65 195 114 225
175 19 38 21 50 11 62 -20 24 -105 45 -158 39 -26 -3 -101 1 -168 9 -134 16
-136 16 -283 -20 -84 -20 -113 -24 -155 -17 -28 5 -179 9 -336 9 l-285 0 -140
43 c-77 24 -178 57 -225 74 -78 27 -92 29 -170 23 -50 -4 -121 -18 -172 -35
-48 -16 -105 -32 -125 -36 -21 -3 -74 -15 -118 -25 -178 -41 -323 -52 -615
-46 -229 5 -284 9 -330 24 l-55 18 -7 125 c-13 250 -105 543 -216 688 -18 24
-32 45 -30 46 2 1 31 10 66 19 94 26 186 73 236 122 97 93 156 269 156 462 0
229 -76 434 -181 488 -15 8 -53 15 -83 15 -47 0 -61 -4 -88 -29 -31 -27 -33
-34 -31 -88 1 -32 9 -97 18 -146 14 -74 14 -96 4 -144 -24 -107 -79 -156 -295
-265 -198 -99 -200 -99 -455 -9 -157 55 -259 63 -804 66 -653 4 -884 20 -1323
96 -97 16 -215 32 -262 35 -47 3 -186 18 -310 34 -442 57 -477 59 -945 65
-247 3 -508 10 -580 16 -165 13 -425 53 -496 76 -139 44 -618 318 -595 340 3
3 33 0 68 -6 460 -80 787 -106 1004 -82 79 10 383 98 424 123 33 21 20 40 -64
95 -56 37 -113 64 -200 92 -255 85 -414 107 -836 118 -298 8 -300 14 -10 28
217 10 480 56 603 104 32 12 118 69 129 84 12 19 -4 37 -41 47 -50 13 -263 56
-396 80 -121 22 -255 24 -680 9z m-1119 -535 c19 -5 20 -9 11 -42 -8 -31 -6
-46 11 -84 11 -26 18 -49 14 -52 -10 -10 -231 -7 -237 4 -14 22 63 116 135
164 27 17 34 19 66 10z"/>
</g>
</svg>
