<?xml version="1.0" standalone="no"?>
<!DOCTYPE svg PUBLIC "-//W3C//DTD SVG 20010904//EN"
 "http://www.w3.org/TR/2001/REC-SVG-20010904/DTD/svg10.dtd">
<svg version="1.0" xmlns="http://www.w3.org/2000/svg"
 width="1280.000000pt" height="939.000000pt" viewBox="0 0 1280.000000 939.000000"
 preserveAspectRatio="xMidYMid meet">
<metadata>
Created by potrace 1.15, written by Peter Selinger 2001-2017
</metadata>
<g transform="translate(0.000000,939.000000) scale(0.100000,-0.100000)"
fill="#000000" stroke="none">
<path d="M7979 9381 c-71 -23 -214 -111 -321 -198 -25 -21 -85 -69 -131 -107
-97 -78 -126 -121 -112 -162 15 -41 74 -67 165 -72 l78 -4 -10 -37 c-15 -53
-3 -157 27 -231 49 -118 147 -282 202 -335 137 -135 321 -151 451 -39 78 66
115 153 158 367 l26 132 48 43 c63 55 85 93 101 170 24 113 -18 238 -113 338
-92 98 -193 139 -328 135 -105 -3 -114 -2 -170 3 -25 3 -57 1 -71 -3z"/>
<path d="M8474 8099 c-129 -49 -184 -171 -171 -382 10 -153 67 -365 135 -494
28 -55 344 -426 447 -526 157 -153 255 -172 313 -62 21 40 20 181 -2 305 -31
172 -115 524 -152 636 -92 276 -207 454 -333 518 -64 33 -160 35 -237 5z"/>
<path d="M7918 7909 c-123 -13 -172 -46 -394 -262 -246 -238 -364 -320 -579
-400 -152 -57 -452 -122 -676 -148 -114 -12 -169 -8 -397 29 -96 16 -115 17
-119 5 -3 -8 -4 -15 -2 -17 10 -7 363 -117 434 -135 371 -94 832 -87 1117 15
231 84 536 280 700 452 80 84 119 147 139 226 20 79 -17 144 -121 218 -32 22
-41 24 -102 17z"/>
<path d="M5080 6645 c-321 -65 -662 -273 -894 -545 -317 -370 -515 -871 -545
-1382 -35 -598 136 -1133 498 -1558 l45 -52 -55 35 c-158 101 -360 179 -792
307 -560 165 -636 198 -772 330 -49 48 -162 149 -250 225 -88 76 -275 251
-416 389 -291 285 -298 295 -380 524 -27 75 -58 157 -70 180 -11 24 -83 113
-161 198 -119 128 -151 157 -198 178 -96 43 -226 71 -640 136 -107 17 -222 37
-255 44 -33 8 -61 13 -62 12 -2 -2 173 -76 387 -166 l391 -164 112 -89 c206
-163 278 -245 322 -362 36 -95 96 -211 176 -338 38 -62 82 -137 97 -168 20
-41 39 -64 72 -85 61 -39 210 -165 250 -211 65 -75 406 -439 454 -484 100 -96
145 -115 561 -246 582 -182 776 -252 968 -348 59 -30 223 -130 365 -224 290
-191 451 -281 503 -281 56 0 153 -27 369 -100 236 -80 279 -88 685 -125 537
-48 709 -86 925 -202 177 -95 295 -191 580 -467 285 -277 419 -380 617 -472
214 -100 308 -122 737 -170 622 -69 1434 -184 1850 -260 298 -55 934 -196
1071 -238 27 -8 51 -14 52 -12 6 6 -205 130 -303 179 -427 214 -913 326 -2014
462 -113 14 -290 36 -395 50 -104 14 -262 32 -350 40 -192 19 -296 42 -420 94
-206 86 -352 190 -580 411 -444 431 -536 502 -783 606 -246 104 -428 140 -957
189 -544 51 -692 81 -974 200 -62 26 -110 49 -109 51 2 2 37 -5 77 -16 240
-61 498 -47 750 42 419 148 794 508 1010 970 178 379 255 780 231 1191 -33
550 -237 1023 -586 1357 -204 195 -444 322 -688 365 -110 19 -412 19 -506 0z
m503 -209 c232 -56 483 -216 648 -413 396 -472 533 -1161 364 -1828 -72 -284
-237 -609 -413 -810 -257 -295 -577 -468 -915 -494 -358 -28 -737 139 -993
437 -286 332 -440 781 -437 1277 3 669 305 1296 786 1633 141 99 364 192 510
212 95 13 370 5 450 -14z"/>
<path d="M9399 6546 c-83 -23 -148 -67 -239 -163 -169 -176 -245 -312 -566
-1013 -293 -640 -508 -1134 -859 -1975 -92 -220 -203 -484 -246 -588 -85 -203
-182 -464 -177 -478 19 -58 445 528 978 1344 107 164 284 434 394 600 234 356
363 560 671 1066 337 554 380 652 380 866 0 114 -2 123 -31 185 -18 36 -51 88
-75 117 l-44 52 -70 0 c-38 -1 -91 -7 -116 -13z"/>
<path d="M8028 6385 c-270 -37 -698 -149 -841 -221 -146 -73 -257 -171 -305
-267 -28 -56 -42 -137 -42 -242 1 -190 57 -337 286 -742 178 -315 331 -613
368 -715 40 -113 61 -155 69 -141 3 5 11 83 18 173 11 153 10 176 -10 315 -11
83 -34 281 -51 440 -16 160 -39 350 -50 423 -22 141 -30 275 -17 288 4 4 89
11 190 16 442 19 749 70 922 153 129 62 206 170 191 267 -7 43 -66 167 -88
185 -17 14 -220 59 -328 73 -107 13 -189 11 -312 -5z"/>
<path d="M10150 4990 c-334 -28 -734 -255 -1002 -570 -208 -245 -386 -600
-467 -930 -44 -183 -61 -313 -68 -510 -18 -545 143 -1051 456 -1434 293 -358
762 -567 1178 -526 332 33 610 159 881 400 237 210 415 475 546 812 116 296
161 546 160 888 0 238 -16 375 -64 565 -43 165 -76 256 -150 410 -188 387
-457 657 -803 805 -203 86 -397 112 -667 90z m361 -215 c223 -39 427 -152 620
-345 220 -219 364 -486 449 -830 45 -184 55 -284 54 -525 0 -180 -4 -243 -22
-346 -110 -624 -446 -1134 -902 -1369 -335 -171 -674 -185 -1005 -40 -345 152
-635 488 -779 905 -75 217 -104 380 -113 620 -6 196 4 343 38 510 116 579 449
1069 878 1293 212 111 326 141 542 142 95 0 189 -6 240 -15z"/>
<path d="M11700 445 c0 -18 128 -72 566 -240 279 -107 509 -193 511 -191 8 8
-85 68 -177 115 -167 86 -428 183 -705 262 -77 22 -152 44 -167 49 -16 5 -28
7 -28 5z"/>
</g>
</svg>
